<mxfile host="app.diagrams.net" agent="Mozilla/5.0 (Windows NT 10.0; Win64; x64) AppleWebKit/537.36 (KHTML, like Gecko) Chrome/128.0.0.0 Safari/537.36" version="24.7.8">
  <diagram id="C5RBs43oDa-KdzZeNtuy" name="Page-1">
    <mxGraphModel dx="1434" dy="772" grid="1" gridSize="10" guides="1" tooltips="1" connect="1" arrows="1" fold="1" page="1" pageScale="1" pageWidth="827" pageHeight="1169" math="0" shadow="0">
      <root>
        <mxCell id="WIyWlLk6GJQsqaUBKTNV-0" />
        <mxCell id="WIyWlLk6GJQsqaUBKTNV-1" parent="WIyWlLk6GJQsqaUBKTNV-0" />
        <mxCell id="Q0e2XrqvDXK8GNrd1PRW-0" value="Usuarios" style="rounded=0;whiteSpace=wrap;html=1;" vertex="1" parent="WIyWlLk6GJQsqaUBKTNV-1">
          <mxGeometry x="149" y="150" width="130" height="60" as="geometry" />
        </mxCell>
        <mxCell id="Q0e2XrqvDXK8GNrd1PRW-1" value="Email&lt;div&gt;Password&lt;/div&gt;&lt;div&gt;Nombre&lt;/div&gt;&lt;div&gt;Apellido&lt;/div&gt;&lt;div&gt;Avatar&lt;/div&gt;" style="text;html=1;align=center;verticalAlign=middle;whiteSpace=wrap;rounded=0;" vertex="1" parent="WIyWlLk6GJQsqaUBKTNV-1">
          <mxGeometry x="184" y="240" width="60" height="30" as="geometry" />
        </mxCell>
        <mxCell id="Q0e2XrqvDXK8GNrd1PRW-3" value="Guarda" style="rhombus;whiteSpace=wrap;html=1;" vertex="1" parent="WIyWlLk6GJQsqaUBKTNV-1">
          <mxGeometry x="353" y="140" width="126" height="80" as="geometry" />
        </mxCell>
        <mxCell id="Q0e2XrqvDXK8GNrd1PRW-4" value="Sesión" style="rounded=0;whiteSpace=wrap;html=1;" vertex="1" parent="WIyWlLk6GJQsqaUBKTNV-1">
          <mxGeometry x="559" y="150" width="120" height="60" as="geometry" />
        </mxCell>
        <mxCell id="Q0e2XrqvDXK8GNrd1PRW-5" value="" style="endArrow=classic;html=1;rounded=0;exitX=1;exitY=0.5;exitDx=0;exitDy=0;entryX=0;entryY=0.5;entryDx=0;entryDy=0;" edge="1" parent="WIyWlLk6GJQsqaUBKTNV-1" source="Q0e2XrqvDXK8GNrd1PRW-0" target="Q0e2XrqvDXK8GNrd1PRW-3">
          <mxGeometry width="50" height="50" relative="1" as="geometry">
            <mxPoint x="339" y="300" as="sourcePoint" />
            <mxPoint x="389" y="250" as="targetPoint" />
          </mxGeometry>
        </mxCell>
        <mxCell id="Q0e2XrqvDXK8GNrd1PRW-6" value="" style="endArrow=classic;html=1;rounded=0;entryX=1;entryY=0.5;entryDx=0;entryDy=0;exitX=0;exitY=0.5;exitDx=0;exitDy=0;" edge="1" parent="WIyWlLk6GJQsqaUBKTNV-1" source="Q0e2XrqvDXK8GNrd1PRW-4" target="Q0e2XrqvDXK8GNrd1PRW-3">
          <mxGeometry width="50" height="50" relative="1" as="geometry">
            <mxPoint x="489" y="290" as="sourcePoint" />
            <mxPoint x="539" y="240" as="targetPoint" />
          </mxGeometry>
        </mxCell>
        <mxCell id="Q0e2XrqvDXK8GNrd1PRW-7" value="SesionID" style="text;html=1;align=center;verticalAlign=middle;whiteSpace=wrap;rounded=0;" vertex="1" parent="WIyWlLk6GJQsqaUBKTNV-1">
          <mxGeometry x="539" y="210" width="60" height="30" as="geometry" />
        </mxCell>
        <mxCell id="Q0e2XrqvDXK8GNrd1PRW-8" value="1:1" style="text;html=1;align=center;verticalAlign=middle;whiteSpace=wrap;rounded=0;" vertex="1" parent="WIyWlLk6GJQsqaUBKTNV-1">
          <mxGeometry x="386" y="110" width="60" height="30" as="geometry" />
        </mxCell>
        <mxCell id="Q0e2XrqvDXK8GNrd1PRW-10" value="&lt;h1 style=&quot;margin-top: 0px;&quot;&gt;Microservicio general&lt;/h1&gt;&lt;div&gt;En este microservicio se guardaran los usuarios que se registren y sus sesiones para que tengan acceso a los demás contenidos de la aplicación&lt;/div&gt;" style="text;html=1;whiteSpace=wrap;overflow=hidden;rounded=0;" vertex="1" parent="WIyWlLk6GJQsqaUBKTNV-1">
          <mxGeometry x="69" width="340" height="120" as="geometry" />
        </mxCell>
        <mxCell id="Q0e2XrqvDXK8GNrd1PRW-11" value="&lt;h1 style=&quot;margin-top: 0px;&quot;&gt;Microservicio apartado pesca&lt;/h1&gt;&lt;div&gt;En este microservicio se guardarán los datos de los peces ( de rio ) con los que el usuario podrá interactuar para guardar sus capturas&lt;/div&gt;" style="text;html=1;whiteSpace=wrap;overflow=hidden;rounded=0;" vertex="1" parent="WIyWlLk6GJQsqaUBKTNV-1">
          <mxGeometry x="80" y="330" width="370" height="120" as="geometry" />
        </mxCell>
        <mxCell id="Q0e2XrqvDXK8GNrd1PRW-12" value="Pez" style="rounded=0;whiteSpace=wrap;html=1;" vertex="1" parent="WIyWlLk6GJQsqaUBKTNV-1">
          <mxGeometry x="80" y="450" width="120" height="60" as="geometry" />
        </mxCell>
        <mxCell id="Q0e2XrqvDXK8GNrd1PRW-13" value="ID (autogenerado)&lt;div&gt;Nombre del pez&lt;/div&gt;&lt;div&gt;Invasor&lt;/div&gt;" style="text;html=1;align=center;verticalAlign=middle;whiteSpace=wrap;rounded=0;" vertex="1" parent="WIyWlLk6GJQsqaUBKTNV-1">
          <mxGeometry x="69" y="530" width="131" height="30" as="geometry" />
        </mxCell>
        <mxCell id="Q0e2XrqvDXK8GNrd1PRW-14" value="Capturado" style="rhombus;whiteSpace=wrap;html=1;" vertex="1" parent="WIyWlLk6GJQsqaUBKTNV-1">
          <mxGeometry x="306" y="440" width="134" height="80" as="geometry" />
        </mxCell>
        <mxCell id="Q0e2XrqvDXK8GNrd1PRW-15" value="Usuarios" style="rounded=0;whiteSpace=wrap;html=1;" vertex="1" parent="WIyWlLk6GJQsqaUBKTNV-1">
          <mxGeometry x="539" y="450" width="130" height="60" as="geometry" />
        </mxCell>
        <mxCell id="Q0e2XrqvDXK8GNrd1PRW-16" value="Datos proporcionados por la otra base de datos" style="text;html=1;align=center;verticalAlign=middle;whiteSpace=wrap;rounded=0;" vertex="1" parent="WIyWlLk6GJQsqaUBKTNV-1">
          <mxGeometry x="539" y="520" width="131" height="30" as="geometry" />
        </mxCell>
        <mxCell id="Q0e2XrqvDXK8GNrd1PRW-17" value="" style="endArrow=classic;html=1;rounded=0;exitX=1;exitY=0.5;exitDx=0;exitDy=0;entryX=0;entryY=0.5;entryDx=0;entryDy=0;" edge="1" parent="WIyWlLk6GJQsqaUBKTNV-1" target="Q0e2XrqvDXK8GNrd1PRW-14">
          <mxGeometry width="50" height="50" relative="1" as="geometry">
            <mxPoint x="200" y="479.5" as="sourcePoint" />
            <mxPoint x="274" y="479.5" as="targetPoint" />
          </mxGeometry>
        </mxCell>
        <mxCell id="Q0e2XrqvDXK8GNrd1PRW-18" value="" style="endArrow=classic;html=1;rounded=0;entryX=1;entryY=0.5;entryDx=0;entryDy=0;exitX=0;exitY=0.5;exitDx=0;exitDy=0;" edge="1" parent="WIyWlLk6GJQsqaUBKTNV-1" source="Q0e2XrqvDXK8GNrd1PRW-15">
          <mxGeometry width="50" height="50" relative="1" as="geometry">
            <mxPoint x="520" y="479.5" as="sourcePoint" />
            <mxPoint x="440" y="479.5" as="targetPoint" />
          </mxGeometry>
        </mxCell>
        <mxCell id="Q0e2XrqvDXK8GNrd1PRW-19" value="Fecha captura&lt;div&gt;Sitio captura&lt;/div&gt;&lt;div&gt;Foto captura&lt;/div&gt;" style="text;html=1;align=center;verticalAlign=middle;whiteSpace=wrap;rounded=0;" vertex="1" parent="WIyWlLk6GJQsqaUBKTNV-1">
          <mxGeometry x="319.5" y="540" width="107" height="30" as="geometry" />
        </mxCell>
        <mxCell id="Q0e2XrqvDXK8GNrd1PRW-21" value="&lt;h1 style=&quot;margin-top: 0px;&quot;&gt;Microservicio apartado To do List&lt;/h1&gt;&lt;div&gt;Esta base de datos estará hecha en mongodb porque al no tener archivos como fotos y al poder guardar las tareas en un objeto pequeño acompañado del id del usuario hará que su carga sea más rápida&lt;/div&gt;" style="text;html=1;whiteSpace=wrap;overflow=hidden;rounded=0;" vertex="1" parent="WIyWlLk6GJQsqaUBKTNV-1">
          <mxGeometry x="80" y="600" width="400" height="120" as="geometry" />
        </mxCell>
        <mxCell id="Q0e2XrqvDXK8GNrd1PRW-22" value="Tarea" style="rounded=0;whiteSpace=wrap;html=1;" vertex="1" parent="WIyWlLk6GJQsqaUBKTNV-1">
          <mxGeometry x="81" y="770" width="120" height="60" as="geometry" />
        </mxCell>
        <mxCell id="Q0e2XrqvDXK8GNrd1PRW-23" value="Nombre de la tarea&lt;div&gt;Breve descripción&lt;/div&gt;&lt;div&gt;Gravedad de la tarea&lt;/div&gt;&lt;div&gt;Fecha de creación&lt;/div&gt;&lt;div&gt;Fecha de finalización&lt;/div&gt;&lt;div&gt;Email de usuario&lt;/div&gt;&lt;div&gt;Id&lt;/div&gt;" style="text;html=1;align=center;verticalAlign=middle;whiteSpace=wrap;rounded=0;" vertex="1" parent="WIyWlLk6GJQsqaUBKTNV-1">
          <mxGeometry x="81" y="870" width="121" height="30" as="geometry" />
        </mxCell>
        <mxCell id="Q0e2XrqvDXK8GNrd1PRW-26" value="N:M" style="text;html=1;align=center;verticalAlign=middle;whiteSpace=wrap;rounded=0;" vertex="1" parent="WIyWlLk6GJQsqaUBKTNV-1">
          <mxGeometry x="340" y="410" width="60" height="30" as="geometry" />
        </mxCell>
      </root>
    </mxGraphModel>
  </diagram>
</mxfile>
